<?xml version="1.0" encoding="utf-8"?>
<!DOCTYPE svg PUBLIC "-//W3C//DTD SVG 20010904//EN" "http://www.w3.org/TR/2001/REC-SVG-20010904/DTD/svg10.dtd">
<svg version="1.0" xmlns="http://www.w3.org/2000/svg" width="133" height="29" viewBox="0 0 1500 360" preserveAspectRatio="xMidYMid meet">
 <g fill="#ffffff">
  <path d="M106.5 359.1 c-1.6 -0.5 -5.1 -0.9 -7.6 -1 -8.4 -0.2 -10.6 -1.6 -14.4 -9.1 -1.9 -3.8 -3.7 -8.7 -4.1 -10.9 -0.6 -3.5 -1.1 -4.2 -4.2 -5.2 -7.3 -2.4 -15.1 -0.6 -31.5 7.3 -16.6 7.9 -21.2 8.9 -32.1 6.9 -11.4 -2.1 -14.2 -9 -6.4 -15.4 4.5 -3.6 16.6 -11.2 32.8 -20.5 11.8 -6.7 20.9 -12.5 27.8 -17.5 5.1 -3.7 5.2 -3.8 5.2 -9 0 -10.2 -5.6 -27.6 -19.5 -60.2 -9.9 -23.6 -10.4 -25 -12.1 -38.5 -2.8 -22.5 -1.2 -72.9 2.6 -82.5 0.7 -1.6 2.1 -7 3.1 -11.9 3.9 -18.1 12.4 -33 27.9 -48.7 9.5 -9.6 20.6 -18.1 29 -22.3 5.8 -3 32.9 -12.1 40 -13.5 3 -0.5 6.9 -1.4 8.5 -1.8 4.8 -1.1 38.4 -0.8 44.3 0.5 24.1 5.1 39.6 11.3 59.2 24 9.4 6 26 19 26 20.4 0 0.4 -3.3 0.8 -7.2 0.8 -20.6 0 -47 8.3 -65.8 20.5 -9.4 6.2 -24.1 20.8 -30.2 30 -12.1 18.3 -21.2 42.6 -25.5 68 -2.2 12.8 -2.5 56.2 -0.4 67 3.6 19.3 17.1 43.8 31.6 57.4 11.4 10.6 22.4 16.5 36.1 19.5 7.8 1.7 41.7 3.6 63.7 3.6 23.6 0 40.3 3.4 45.1 9.1 5.2 6.1 2.3 17.9 -6.4 26.4 -3.8 3.7 -4.4 3.9 -10.3 4.1 -3.4 0.1 -15.2 0.7 -26.2 1.3 -22.4 1.4 -40 0.5 -45.3 -2.3 -2.9 -1.5 -3.2 -2.1 -3.2 -6 0 -6.4 -3.6 -8.3 -12.4 -6.4 -6.5 1.3 -9.2 2.7 -15.4 8 -11.1 9.5 -28.7 11.5 -41.3 4.8 -1 -0.6 -3.2 -3.6 -5 -6.7 -4.7 -8.4 -7 -11.2 -10.8 -13.9 -2.6 -1.7 -3.9 -2.1 -5.2 -1.3 -1 0.5 -4.9 5.3 -8.7 10.7 -3.8 5.3 -7.8 10.4 -8.8 11.3 -2.9 2.5 -17.5 4.4 -22.9 3z m15.3 -225 c9.7 -5 13.6 -15.3 9.3 -24.6 -3.5 -7.6 -9.5 -11.5 -17.6 -11.5 -5.5 0 -9.2 1.4 -12.9 4.8 -10.2 9.6 -7.8 25 4.9 31.6 4.1 2.2 11.8 2 16.3 -0.3z"/>
  <path d="M261.5 304.5 c-44.4 -7 -74.5 -31.4 -87.4 -71 -8.8 -26.8 -8.6 -59.3 0.4 -87.2 3.7 -11.6 11.9 -27.1 19 -36.1 18.4 -23.3 49.3 -36.2 86.2 -36.2 33.9 0.1 60.4 11.3 76.1 32.1 6 8 15.2 28.9 15.2 34.5 0 1.9 -24.7 9.1 -26.1 7.6 -0.4 -0.4 -2.1 -4.3 -3.8 -8.8 -5.9 -15.3 -13.6 -24.1 -26.6 -30.5 -10.7 -5.2 -17.8 -6.9 -31.3 -7.6 -29.1 -1.5 -53 8.7 -67.6 28.7 -13.7 18.7 -20.3 49.1 -16.5 76.7 3.1 22.8 9.6 37.3 22.9 50.3 10.9 10.7 24.7 17.3 42.7 20.4 15.2 2.7 30.5 1.6 46.3 -3.4 10.6 -3.4 23.2 -9.5 30.4 -14.7 l4.6 -3.3 -0.2 -19.8 -0.3 -19.7 -32.5 -0.5 -32.5 -0.5 -0.3 -13.2 -0.3 -13.3 47.6 0 47.5 0 0 56.8 c0 31.2 -0.4 57.3 -0.9 58.1 -0.7 1 -2.9 1.3 -9.7 0.9 -8.5 -0.4 -9.1 -0.6 -12.1 -3.7 -1.8 -1.8 -3.3 -3.6 -3.3 -4 0 -0.4 -0.7 -2.2 -1.6 -3.9 -1.6 -3.2 -2.8 -4 -3.8 -2.3 -0.9 1.5 -15.4 7.2 -24.6 9.8 -18.9 5.2 -39.8 6.6 -57.5 3.8z"/>
  <path d="M589.5 304.9 c-24.9 -4.6 -44.4 -19.7 -53.5 -41.4 -5.3 -12.9 -7.1 -23.6 -7.1 -42.6 0 -22.9 3.1 -36.3 11.5 -50.1 13.1 -21.6 36.4 -33.8 64.3 -33.8 24 0 44 8.9 58.3 26 12.3 14.9 17 30.8 17 57.9 0 17 -0.8 23.9 -4.2 35.1 -2.7 8.9 -4.4 12.5 -9.4 19.6 -13.3 19 -37.1 30.5 -62.4 30.3 -5.2 -0.1 -11.7 -0.5 -14.5 -1z m24.7 -27 c16.9 -3.6 29.9 -16.2 35.4 -34.4 2.5 -8.2 2.6 -36.5 0.2 -44 -3.7 -11.4 -8.3 -18.8 -15.7 -25 -21.2 -17.6 -55 -12.3 -68.9 10.7 -6 10 -7.7 18.1 -7.7 36.3 0 17.4 1.1 23 6.3 33.4 8.8 17.4 30.3 27.2 50.4 23z"/>
  <path d="M728 304.4 c-8.9 -1.6 -18 -4.7 -23.5 -8.2 -11.7 -7.2 -20.9 -20.6 -25 -36.4 -1.2 -4.8 -1.2 -5 1 -5.8 2 -0.8 9.7 -2.1 21.1 -3.7 l4.1 -0.5 1.1 4.3 c2.3 9.2 10.2 17.6 19.8 21.3 13.7 5.2 33.5 4.6 45.8 -1.3 12.3 -6 16.4 -19.7 8 -27.1 -4.5 -3.9 -7.5 -5.1 -20.9 -8.4 -12.2 -2.9 -14.1 -3.4 -27 -7.1 -13 -3.8 -20.2 -6.4 -26.6 -9.6 -26.3 -13.2 -30.6 -48.9 -8.5 -69.7 17.8 -16.6 54.4 -20.3 82.1 -8.2 14.4 6.2 24.1 19.2 26.9 36.2 0.8 4.3 1.9 3.8 -14.4 6.7 -11.2 2 -13 1.7 -13 -2.4 0 -3.6 -6.1 -11.7 -11.1 -14.8 -6.4 -3.9 -13.9 -5.7 -24.4 -5.7 -12.4 0.1 -21.2 2.3 -27.3 6.8 -6.4 4.8 -7.9 11.4 -3.9 17.3 3.8 5.6 9.2 7.9 30.7 12.9 3 0.7 10 2.6 15.5 4.2 5.5 1.7 11.4 3.4 13 3.8 23.4 6.4 35.3 15.7 40.4 31.9 1.6 5 1.3 20.4 -0.4 26.6 -4.5 15.4 -19.2 28.9 -38 34.8 -12.3 3.9 -30.9 4.8 -45.5 2.1z"/>
  <path d="M851.4 304.6 c-9.4 -2.3 -18 -8.9 -20.6 -15.5 -0.5 -1.4 -1.4 -5.1 -1.9 -8.1 -1.1 -6.8 -1.3 -182 -0.2 -183 1.8 -1.6 24.4 -15 25.3 -15 0.6 0 1 10 1 28 l0 28 12.9 0 c7.2 0 13.2 0.4 13.5 0.9 0.3 0.4 -2.3 6.4 -5.7 13.2 l-6.2 12.4 -7 0.5 -7 0.5 0 52 c0 48.1 0.1 52.3 1.8 54.8 2.6 3.9 7.7 5.7 16.7 5.7 l7.7 0 0.7 4.6 c0.3 2.6 0.6 8 0.6 12 0 6.6 -0.2 7.5 -2.2 8.5 -3.3 1.8 -23.2 2.1 -29.4 0.5z"/>
  <path d="M1203 304.6 c-20.1 -3.8 -35.6 -14 -46.6 -30.6 -3.9 -5.8 -6 -10.3 -8.3 -18.2 -3.9 -12.9 -4.4 -17.2 -4.4 -34.8 0.1 -15.3 0.4 -18.8 2.6 -27.8 5.6 -22.3 16.2 -36.7 34.7 -47 25.5 -14.1 61.5 -12 84.7 5.2 14.4 10.6 24.2 27.4 28.2 48.2 1.8 9.9 1.4 35.7 -0.8 46.6 -6.4 31.8 -26.1 51.6 -58.2 58.3 -8.3 1.8 -22.7 1.8 -31.9 0.1z m26.2 -26.7 c8.8 -1.9 15.8 -5.8 22.9 -12.9 5.6 -5.5 7.1 -7.8 9.8 -14.8 4 -10.4 5.5 -21.6 4.7 -35.3 -1 -16.4 -4.8 -27 -13.3 -36 -14.9 -15.9 -37.4 -19.4 -57.3 -8.8 -16 8.5 -24.2 26 -24.2 51.4 0.1 20.2 4.9 34.4 14.9 44.3 11.1 10.8 27.1 15.4 42.5 12.1z"/>
  <path d="M1345 304.4 c-18.2 -3.3 -30.1 -10.4 -38.9 -23.4 -4.3 -6.2 -8.6 -16.4 -9.6 -22.7 l-0.6 -4.1 5.3 -1 c9.4 -1.8 18.5 -3.2 20.1 -3.2 1 0 2.1 2 3.3 5.6 4.7 15 19.1 23.3 40.4 23.3 14.6 0 26.4 -4 32.4 -11.1 6 -7 6 -15.5 0 -20.8 -4.5 -3.9 -7.5 -5.1 -20.9 -8.4 -12.2 -2.9 -14.1 -3.4 -27 -7.1 -21.7 -6.3 -30.2 -10.3 -37.2 -17.4 -23.3 -23.6 -11.4 -62.9 22.2 -73.3 16.2 -5 37 -5 54.2 0.1 10.5 3.1 21.5 10.4 26.6 17.8 2.9 4.2 7.2 15.2 8.2 21.2 0.8 4.6 1 4.4 -12.3 6.7 -14 2.4 -13.1 2.6 -15.2 -2.9 -5.1 -13.3 -16.4 -19.7 -35 -19.7 -20.2 0.1 -34 7.2 -34 17.6 0 3.9 3.5 9.2 7.6 11.6 3.1 1.8 14.1 5.2 25.4 7.8 5.9 1.3 26.7 7.3 33.9 9.6 19.4 6.4 29.4 14.5 34.2 27.6 2.4 6.5 2.6 22 0.4 29.1 -4.7 15.4 -17.7 28 -36 34.6 -10.9 4 -33 5.2 -47.5 2.5z"/>
  <path d="M1468.4 304.6 c-5.8 -1.4 -12.8 -5.2 -16.1 -8.8 -1.2 -1.2 -3.2 -4.5 -4.5 -7.3 l-2.3 -5 -0.5 -91.9 c-0.3 -60.5 -0.2 -92.3 0.5 -93.1 1.2 -1.5 24.4 -15.5 25.6 -15.5 0.5 0 0.9 12.6 0.9 28 l0 28 14 0 c13.8 0 15.5 0.4 12.9 3.3 -0.6 0.7 -3.7 6.2 -6.8 12.2 l-5.6 11 -7 0.5 -7 0.5 0 51.6 c0 57.3 -0.2 55.5 6.7 59 2.7 1.4 5.8 1.9 11.2 1.9 4.1 0 7.7 0.4 8 0.8 0.3 0.5 0.8 6 1.2 12.4 l0.7 11.6 -5.2 1.1 c-6.7 1.4 -20.2 1.3 -26.7 -0.3z"/>
  <path d="M385.5 302.8 c-0.3 -0.7 -0.4 -51.5 -0.3 -112.8 l0.3 -111.5 13.5 0 13.5 0 0.3 40.8 c0.1 22.4 0.5 40.7 0.8 40.7 0.3 0 3.9 -3.1 8 -6.9 12 -11.2 24.1 -16 40.4 -16.1 20 0 36.7 7.3 46.5 20.5 3.7 5 7.2 15.5 8.5 25.5 0.8 6.6 1.1 26.2 0.8 65 l-0.3 55.5 -13.5 0 -13.5 0 -0.5 -57 c-0.5 -56.7 -0.6 -57 -2.9 -62.8 -3.9 -9.9 -10.3 -15.6 -20.4 -18.3 -17.7 -4.7 -38.9 3.5 -47 18.3 -5.8 10.8 -6 12.3 -6.6 68.3 l-0.6 51.5 -13.3 0.3 c-10 0.2 -13.4 -0.1 -13.7 -1z"/>
  <path d="M975.5 302.8 c-0.3 -0.7 -0.4 -51.5 -0.3 -112.8 l0.3 -111.5 14.5 0 14.5 0 0.5 46 0.5 46 46.5 0 46.5 0 0.5 -46 0.5 -46 14.5 0 14.5 0 0 112.5 0 112.5 -14.5 0 -14.5 0 -0.3 -52.7 -0.2 -52.8 -47 0 -47 0 -0.2 52.8 -0.3 52.7 -14.3 0.3 c-10.8 0.2 -14.4 0 -14.7 -1z"/>
 </g>
</svg>