<?xml version="1.0" standalone="no"?>
<!DOCTYPE svg PUBLIC "-//W3C//DTD SVG 20010904//EN"
 "http://www.w3.org/TR/2001/REC-SVG-20010904/DTD/svg10.dtd">
<svg version="1.0" xmlns="http://www.w3.org/2000/svg"
 width="1500.000000pt" height="1000.000000pt" viewBox="0 0 1500.000000 1000.000000"
 preserveAspectRatio="xMidYMid meet">
<metadata>
Created by potrace 1.16, written by Peter Selinger 2001-2019
</metadata>
<g transform="translate(0.000000,1000.000000) scale(0.100000,-0.100000)"
fill="#000000" stroke="none">
<path d="M0 5000 l0 -5000 7500 0 7500 0 0 5000 0 5000 -7500 0 -7500 0 0
-5000z m4597 1775 c78 -24 239 -119 273 -160 11 -13 7 -15 -32 -15 -68 0 -196
-36 -256 -73 -204 -122 -311 -392 -280 -706 14 -152 113 -304 233 -360 55 -26
174 -40 337 -41 110 0 191 -14 214 -38 23 -23 11 -81 -23 -112 -27 -25 -34
-26 -185 -29 -167 -3 -194 3 -200 41 -4 33 -56 28 -118 -12 -53 -34 -119 -48
-158 -33 -13 5 -40 31 -60 58 -20 27 -42 50 -48 52 -6 2 -29 -21 -52 -50 -45
-61 -74 -71 -167 -58 -49 6 -51 8 -75 58 -24 51 -26 53 -67 53 -27 0 -67 -12
-114 -35 -81 -38 -87 -40 -141 -24 -30 8 -38 15 -38 34 0 20 22 37 134 104
193 116 183 106 168 180 -7 33 -37 120 -68 193 -66 160 -79 234 -70 408 7 139
35 257 79 333 129 219 439 320 714 232z m401 -290 c121 -29 198 -87 246 -188
40 -86 39 -97 -14 -113 -25 -8 -50 -14 -56 -14 -6 0 -25 29 -43 64 -53 107
-155 155 -304 143 -196 -17 -316 -166 -317 -394 0 -175 66 -293 197 -355 116
-55 250 -48 383 18 l70 35 0 95 0 94 -145 0 -145 0 0 60 0 60 215 0 215 0 -2
-257 -3 -258 -33 -3 c-38 -4 -77 18 -87 47 -6 19 -9 18 -88 -12 -74 -28 -93
-31 -202 -31 -170 -1 -262 32 -366 131 -97 92 -143 216 -142 378 0 184 73 346
191 427 115 79 283 108 430 73z m472 -187 l0 -182 33 31 c45 43 90 64 153 70
108 11 206 -35 246 -116 22 -44 23 -58 26 -333 l3 -288 -65 0 -66 0 0 258 c0
225 -2 261 -18 292 -54 110 -254 81 -301 -43 -7 -17 -11 -122 -11 -268 l0
-239 -65 0 -65 0 0 500 0 500 65 0 65 0 0 -182z m2620 -23 l0 -205 210 0 210
0 0 205 0 205 65 0 65 0 0 -500 0 -500 -65 0 -65 0 0 235 0 235 -210 0 -210 0
0 -235 0 -235 -65 0 -65 0 0 500 0 500 65 0 65 0 0 -205z m-660 60 l0 -125 60
0 60 0 -30 -60 c-27 -53 -34 -60 -60 -60 l-30 0 0 -234 c0 -267 0 -266 76
-266 l44 0 0 -55 c0 -50 -2 -55 -25 -61 -45 -11 -134 1 -163 23 -57 42 -57 43
-60 484 l-4 406 59 36 c32 20 61 37 66 37 4 0 7 -56 7 -125z m2740 0 l0 -125
60 0 60 0 -30 -60 c-27 -53 -34 -60 -60 -60 l-30 0 0 -234 c0 -263 1 -266 70
-266 l38 0 7 -51 c9 -65 1 -71 -87 -67 -49 3 -75 9 -95 24 -58 43 -58 43 -61
485 l-4 406 59 36 c32 20 61 37 66 37 4 0 7 -56 7 -125z m-3709 -147 c138 -63
196 -181 187 -379 -4 -85 -9 -107 -37 -163 -35 -71 -79 -112 -158 -149 -67
-31 -217 -31 -283 -1 -130 60 -190 169 -190 349 0 193 70 306 223 357 75 26
185 19 258 -14z m568 21 c97 -21 160 -79 177 -167 7 -33 3 -36 -71 -46 -38 -6
-41 -4 -55 26 -23 50 -61 71 -134 76 -169 11 -228 -109 -73 -148 228 -58 295
-85 334 -137 31 -41 42 -121 23 -178 -18 -53 -72 -109 -133 -136 -68 -31 -226
-34 -298 -6 -61 23 -117 83 -140 149 -20 60 -21 59 58 72 41 6 43 5 57 -26 26
-64 88 -98 175 -98 96 0 164 40 164 95 0 44 -31 62 -173 100 -74 20 -151 45
-171 55 -96 49 -133 165 -84 260 50 96 194 142 344 109z m2162 -21 c138 -63
196 -181 187 -379 -4 -85 -9 -107 -37 -163 -35 -71 -79 -112 -158 -149 -67
-31 -217 -31 -283 -1 -130 60 -190 169 -190 349 0 193 70 306 223 357 75 26
185 19 258 -14z m578 21 c97 -21 160 -79 177 -167 7 -33 3 -36 -71 -46 -38 -6
-41 -4 -55 26 -23 50 -61 71 -134 76 -169 11 -228 -109 -73 -148 228 -58 295
-85 334 -137 31 -41 42 -121 23 -178 -18 -53 -72 -109 -133 -136 -68 -31 -226
-34 -298 -6 -61 23 -117 83 -140 149 -20 60 -21 59 58 72 41 6 43 5 57 -26 26
-64 88 -98 175 -98 96 0 164 40 164 95 0 44 -31 62 -173 100 -74 20 -151 45
-171 55 -96 49 -133 165 -84 260 50 96 194 142 344 109z"/>
<path d="M4071 6364 c-47 -59 -9 -138 66 -138 44 0 83 40 83 85 0 72 -105 109
-149 53z"/>
<path d="M6247 6090 c-47 -15 -94 -57 -118 -107 -20 -40 -24 -64 -24 -138 0
-78 4 -98 26 -140 35 -68 89 -105 165 -112 51 -4 66 -1 114 24 45 24 60 38 83
84 25 48 28 67 28 143 1 115 -29 182 -98 223 -50 29 -127 39 -176 23z"/>
<path d="M8977 6090 c-47 -15 -94 -57 -118 -107 -20 -40 -24 -64 -24 -138 0
-78 4 -98 26 -140 35 -68 89 -105 165 -112 51 -4 66 -1 114 24 45 24 60 38 83
84 25 48 28 67 28 143 1 115 -29 182 -98 223 -50 29 -127 39 -176 23z"/>
</g>
</svg>
